<?xml version="1.0" encoding="UTF-8"?>
<!-- Created with Inkscape (http://www.inkscape.org/) -->
<svg width="210mm" height="297mm" version="1.1" viewBox="0 0 210 297" xmlns="http://www.w3.org/2000/svg" xmlns:cc="http://creativecommons.org/ns#" xmlns:dc="http://purl.org/dc/elements/1.1/" xmlns:rdf="http://www.w3.org/1999/02/22-rdf-syntax-ns#">
 <metadata>
  <rdf:RDF>
   <cc:Work rdf:about="">
    <dc:format>image/svg+xml</dc:format>
    <dc:type rdf:resource="http://purl.org/dc/dcmitype/StillImage"/>
    <dc:title/>
   </cc:Work>
  </rdf:RDF>
 </metadata>
 <path d="m23.403 8.9381-2.6458 0.03979-2.6458 0.04237v0.11369l-0.0403 2.6458-0.0662 2.6458 0.23048 2.6458-0.18552 2.6458 0.17467 2.6458 8e-3 2.6458-0.0744 2.6458 0.11627 2.6458-0.0527 2.6458 0.016 2.6458-0.0982 2.6458-0.045 2.6458 0.16433 2.6458-0.11937 2.6458 0.15348 2.6458-0.0899 2.6458-0.0925 2.6458-0.0796 2.6458 0.12454 2.6458 0.0212 2.6458 0.0584 2.6458 0.0527 2.6458-0.34933 2.6458h0.17208l2.6458 0.01602 2.6458-0.06615 2.6458 0.01602 2.6458-0.08475 2.6458 0.0047 2.6458 0.26458 2.6458-0.02119 2.6458-0.22738 2.6458 0.22996 2.6458-0.14521 2.6458 0.0031 2.6458-0.08475 2.6458 0.01602 2.6458 0.05271 2.6458-0.077 2.6458 0.27543 2.6458-0.27802 2.6458 0.25166 2.6458-0.01344 2.6458-0.09767 2.6458-0.19585 2.6458 0.2036 2.6458-0.03152 2.6458-0.08733 2.6458 0.08475 2.6458 0.0078 2.6458-0.05013 2.6458-0.05064 2.6458 0.12971 2.6458-0.07389 2.6458-0.15606 2.6458 0.20878v-0.02377l-0.12712-2.6458-0.0475-2.6458 0.15347-2.6458 0.0956-2.6458-0.0109-2.6458 0.12196-2.6458-0.26458-2.6458 0.0925-2.6458-0.20929-2.6458 0.24081-2.6458 0.0424-2.6458-0.17208-2.6458 0.1881-2.6458-0.14572-2.6458 0.18551-2.6458-3e-3 -0.12144 2.5053 0.14779 2.6458 0.077 2.6458 0.04237 2.6458 0.01602h2.6458l2.6458-0.12454 2.6458 0.12971 2.6458-0.25942 2.6458 0.28836 2.6458-0.21963 2.6458 0.01344 2.6458-0.1695 2.6458 0.19844 2.6458-0.04496 2.6458 0.16692v-0.14056l-0.0315-2.6458 0.15864-2.6458-5e-3 -2.6458-0.11886-2.6458 0.15865-2.6458-0.33486-2.6365-2.4722 0.13642-2.6458-0.08733-2.6458-0.11627-2.6458-0.03462-2.6458 0.05013-2.6458 0.10335-2.6458-0.09767-2.6458 0.0925-2.6458 0.08165-2.6458 0.01343-2.6458-0.0925-2.6458-0.02118-2.6458-0.17208-2.6458 0.24856-2.5626 0.077 0.0171-0.19068-5e-3 -2.6458-0.016-2.6458h-0.0791l-2.6458 0.0956-2.6458-0.0956-2.6458 0.05323-2.6458-0.16692-2.6458 0.08217-2.6458 0.19844-2.6458-0.03204-2.6458-0.06046-2.6458-0.11679-2.6458 0.03462-2.6458 0.03411-2.6458-0.13229-2.6458 0.30437-2.6458-0.22479-2.6458-0.06873-2.6458 0.08733-2.6458 0.17208-2.6458-0.02119-2.6458-0.24081-2.6458 0.21962-2.6458-0.0925-2.6458-0.06615-2.6458 0.21394-2.6458-0.0739-2.6458-0.01343-2.6458 0.10077-2.6458-0.17208-2.6458-0.16123-2.6458 0.04496zm118.89 5.4968 0.17363-0.0093h-0.17467z" fill="#ffb366" stroke="#000" stroke-dasharray="1.58999992, 1.58999992" stroke-dashoffset=".371" stroke-linecap="round" stroke-linejoin="round" stroke-miterlimit="10" stroke-width=".265"/>
</svg>
