<?xml version="1.0" encoding="UTF-8" standalone="no"?>
<!-- Created with Inkscape (http://www.inkscape.org/) -->

<svg
   xmlns:dc="http://purl.org/dc/elements/1.1/"
   xmlns:cc="http://creativecommons.org/ns#"
   xmlns:rdf="http://www.w3.org/1999/02/22-rdf-syntax-ns#"
   xmlns:svg="http://www.w3.org/2000/svg"
   xmlns="http://www.w3.org/2000/svg"
   xmlns:sodipodi="http://sodipodi.sourceforge.net/DTD/sodipodi-0.dtd"
   xmlns:inkscape="http://www.inkscape.org/namespaces/inkscape"
   width="210mm"
   height="297mm"
   viewBox="0 0 210 297"
   version="1.1"
   id="svg8"
   inkscape:version="0.92.0 r15299"
   sodipodi:docname="Fragment1.svg">
  <sodipodi:namedview
     id="base"
     pagecolor="#ffffff"
     bordercolor="#666666"
     borderopacity="1.0"
     inkscape:pageopacity="0.0"
     inkscape:pageshadow="2"
     inkscape:zoom="0.7"
     inkscape:cx="253.34611"
     inkscape:cy="648.31364"
     inkscape:document-units="mm"
     inkscape:current-layer="layer1"
     showgrid="false"
     inkscape:window-width="2048"
     inkscape:window-height="1089"
     inkscape:window-x="-8"
     inkscape:window-y="-8"
     inkscape:window-maximized="1" />
  <defs
     id="defs2" />
  <metadata
     id="metadata5">
    <rdf:RDF>
      <cc:Work
         rdf:about="">
        <dc:format>image/svg+xml</dc:format>
        <dc:type
           rdf:resource="http://purl.org/dc/dcmitype/StillImage" />
        <dc:title></dc:title>
      </cc:Work>
    </rdf:RDF>
  </metadata>
  <g
     id="layer1"
     inkscape:groupmode="layer"
     inkscape:label="Ebene 1">
    <path
       style="fill:#ffb366;stroke:#000000;stroke-width:0.26499999;stroke-linecap:round;stroke-linejoin:round;stroke-miterlimit:10;stroke-dasharray:1.58999992, 1.58999992;stroke-dashoffset:0.37100005"
       d="m 23.403439,8.9381191 -2.64583,0.03979 -2.64584,0.04237 v 0.113689 l -0.0403,2.6458329 -0.0662,2.645834 0.23048,2.645833 -0.18552,2.645833 0.17467,2.645834 0.008,2.645833 -0.0744,2.645833 0.11627,2.645834 -0.0527,2.645833 0.016,2.645833 -0.0982,2.645833 -0.045,2.645834 0.16433,2.645833 -0.11937,2.645833 0.15348,2.645834 -0.0899,2.645833 -0.0925,2.645833 -0.0796,2.645834 0.12454,2.645833 0.0212,2.645833 0.0584,2.645833 0.0527,2.645834 -0.34933,2.645833 h 0.17208 l 2.64583,0.01602 2.64584,-0.06615 2.64583,0.01602 2.64583,-0.08475 2.64584,0.0047 2.64583,0.264584 2.645826,-0.02119 2.64584,-0.227375 2.64583,0.22996 2.64583,-0.145212 2.64584,0.0031 2.64583,-0.08475 2.64583,0.01602 2.64583,0.05271 2.64584,-0.077 2.64583,0.275434 2.64583,-0.278019 2.64584,0.251664 2.64583,-0.01344 2.64583,-0.09767 2.64584,-0.195852 2.64584,0.203605 2.64583,-0.03152 2.64583,-0.08733 2.645838,0.08475 2.64583,0.0078 2.64583,-0.05013 2.64584,-0.05064 2.64583,0.129707 2.64583,-0.07389 2.645837,-0.156065 2.64583,0.208775 v -0.02377 l -0.12712,-2.645833 -0.0475,-2.645834 0.15347,-2.645833 0.0956,-2.645833 -0.0109,-2.645833 0.12196,-2.645834 -0.26458,-2.645833 0.0925,-2.645833 -0.20929,-2.645834 0.24081,-2.645833 0.0424,-2.645833 -0.17208,-2.645834 0.1881,-2.645833 -0.14572,-2.645833 0.18551,-2.645833 -0.003,-0.121439 2.50527,0.147794 2.64584,0.077 2.64583,0.04237 2.64583,0.01602 h 2.64584 l 2.64583,-0.124539 2.64583,0.129707 2.64584,-0.259416 2.64583,0.288356 2.64583,-0.219626 2.64584,0.01344 2.64583,-0.1695 2.64583,0.198437 2.64584,-0.04496 2.64583,0.166915 v -0.140559 l -0.0315,-2.645834 0.15864,-2.645833 -0.005,-2.645833 -0.11886,-2.645834 0.15865,-2.645833 -0.33486,-2.636531 -2.47221,0.136425 -2.64583,-0.08733 -2.64583,-0.116271 -2.64584,-0.03462 -2.64583,0.05013 -2.64583,0.103351 -2.64584,-0.09767 -2.64583,0.0925 -2.64583,0.08165 -2.64584,0.01343 -2.64583,-0.0925 -2.64583,-0.02118 -2.64583,-0.172082 -2.64584,0.248563 -2.56263,0.077 0.0171,-0.190685 -0.005,-2.645834 -0.016,-2.6458329 h -0.0791 l -2.64583,0.0956 -2.645837,-0.0956 -2.64583,0.05323 -2.64583,-0.166915 -2.64584,0.08217 -2.64583,0.198437 -2.64583,-0.03204 -2.645838,-0.06046 -2.64583,-0.116787 -2.64583,0.03462 -2.64584,0.03411 -2.64584,-0.132291 -2.64583,0.304374 -2.64583,-0.224793 -2.64584,-0.06873 -2.64583,0.08733 -2.64583,0.172085 -2.64584,-0.02119 -2.64583,-0.240813 -2.64583,0.219625 -2.64584,-0.0925 -2.64583,-0.06615 -2.64583,0.21394 -2.64584,-0.0739 -2.64583,-0.01343 -2.645826,0.100766 -2.64584,-0.172082 -2.64583,-0.161229 -2.64583,0.04496 z m 118.888871,5.4968209 0.17363,-0.0093 h -0.17467 z"
       id="path4544"
       inkscape:connector-curvature="0" />
  </g>
</svg>
